<svg width="250" height="250" viewBox="0 0 250 250" fill="none" xmlns="http://www.w3.org/2000/svg">
<rect width="250" height="250" rx="48" fill="#F3AA4E"/>
<path d="M74.8509 111.945C83.8805 120.975 90.1914 130.737 93.199 139.076C96.3249 147.743 95.4526 153.406 92.8005 156.058C90.1485 158.71 84.486 159.582 75.8188 156.456C67.4797 153.449 57.7175 147.138 48.688 138.108C39.6584 129.079 33.3475 119.317 30.3399 110.977C27.214 102.31 28.0863 96.6477 30.7383 93.9957C33.3904 91.3436 39.0528 90.4713 47.7201 93.5972C56.0592 96.6048 65.8213 102.916 74.8509 111.945Z" stroke="#111820" stroke-width="8"/>
<path d="M74.851 137.851C65.8214 146.88 56.0593 153.191 47.7201 156.199C39.0529 159.325 33.3904 158.453 30.7384 155.801C28.0863 153.149 27.214 147.486 30.3399 138.819C33.3475 130.48 39.6584 120.718 48.688 111.688C57.7176 102.658 67.4797 96.3475 75.8189 93.3399C84.4861 90.214 90.1486 91.0863 92.8006 93.7383C95.4526 96.3904 96.3249 102.053 93.199 110.72C90.1915 119.059 83.8805 128.821 74.851 137.851Z" stroke="#111820" stroke-width="8"/>
<path d="M155.699 104.182V88.2727H218.909V104.182H197.034V161H177.574V104.182H155.699Z" fill="#111820"/>
<rect x="122" y="75" width="7" height="100" rx="3.5" fill="#111820"/>
</svg>
